<?xml version="1.0" encoding="utf-8"?>
<!-- Generator: Adobe Illustrator 22.1.0, SVG Export Plug-In . SVG Version: 6.00 Build 0)  -->
<svg version="1.1" id="Layer_1" xmlns="http://www.w3.org/2000/svg" xmlns:xlink="http://www.w3.org/1999/xlink" x="0px" y="0px"
	 viewBox="0 0 500 500" style="enable-background:new 0 0 500 500;" xml:space="preserve">
<style type="text/css">
	.st0{fill:#270300;}
	.st1{fill:#FDC188;}
	.st2{fill:#FC993D;}
	.st3{fill:#D06603;}
	.st4{fill:#FFFFFF;}
</style>
<polygon class="st0" points="375,106 375,70 358,70 358,52 340,52 340,34 160,34 160,52 145,52 145,70 124,70 124,106 106,106 
	106,322 394,322 394,106 "/>
<polygon class="st1" points="160,52 160,70 142,70 142,106 124,106 124,304 142,304 151,304 160,304 177,304 286,304 286,52 "/>
<polygon class="st2" points="358,106.2 358,70.1 340,70.1 340,52 304,52 304,70.1 160,70.1 160,106.2 142,106.2 142,178 250,178 
	250,214 142,214 142,304 376,304 376,106.2 "/>
<g>
	<g>
		<rect x="286" y="214" class="st3" width="90" height="90"/>
		<polygon class="st3" points="358,106 358,70 304,70 304,106 286,106 286,178 376,178 376,106 		"/>
	</g>
</g>
<rect x="206" y="178" class="st0" width="170" height="18"/>
<rect x="250" y="106" class="st0" width="18" height="198"/>
<rect x="268" y="70" class="st0" width="18" height="36"/>
<rect x="286" y="52" class="st0" width="18" height="18"/>
<rect x="124" y="178" class="st0" width="45" height="18"/>
<path class="st0" d="M160,160v72h54v-72H160z M196,214h-18v-36h18V214z"/>
<polygon class="st0" points="394,340 376,340 376,322 250,322 250,340 232,340 232,322 196,322 196,340 178,340 178,322 142,322 
	142,340 124,340 124,358 106,358 106,394 124,394 124,412 124,466 340,466 340,430 376,430 376,412 394,412 "/>
<polygon class="st4" points="142,340 142,358 124,358 124,376 142,376 142,448 178,448 178,340 "/>
<polygon class="st4" points="250,340 250,412 232,412 232,340 196,340 196,430 214,430 214,448 250,448 250,430 268,430 268,340 "/>
<path class="st4" d="M358,358v-18h-36h-36v108h36v-36h36v-18h18v-36H358z M322,394v-36h18v36H322z"/>
</svg>
