<?xml version="1.0" encoding="utf-8"?>
<!-- Generator: Adobe Illustrator 22.1.0, SVG Export Plug-In . SVG Version: 6.00 Build 0)  -->
<svg version="1.1" id="Layer_1" xmlns="http://www.w3.org/2000/svg" xmlns:xlink="http://www.w3.org/1999/xlink" x="0px" y="0px"
	 viewBox="0 0 252 288" style="enable-background:new 0 0 252 288;" xml:space="preserve">
<style type="text/css">
	.st0{fill:#270300;}
	.st1{fill:#D06603;}
	.st2{fill:#FDC188;}
	.st3{fill:#FC993D;}
</style>
<polygon id="c4" class="st0" points="252,72 234,72 234,36 216,36 216,18 180,18 180,0 72,0 72,18 36,18 36,36 18,36 18,72 0,72 
	0,216 18,216 18,252 36,252 36,270 72,270 72,288 180,288 180,270 216,270 216,252 234,252 234,216 252,216 "/>
<polygon id="c3" class="st1" points="216,54 198,54 198,36 180,36 180,234 54,234 54,252 90,252 90,270 162,270 162,252 198,252 
	198,234 216,234 216,198 234,198 234,90 216,90 "/>
<polygon id="c1" class="st2" points="90,18 90,36 54,36 54,54 36,54 36,90 18,90 18,198 36,198 36,234 90,234 90,216 144,216 
	144,54 162,54 162,18 "/>
<g id="c2">
	<rect x="108" y="72" class="st3" width="36" height="144"/>
	<polygon class="st3" points="198,90 198,54 180,54 180,36 90,36 90,54 108,54 144,54 162,54 162,72 162,216 162,233 162,234 
		180,234 182,234 198,234 198,198 216,198 216,90 	"/>
	<polygon class="st3" points="90,233 90,216 90,72 90,54 72,54 54,54 54,90 36,90 36,198 54,198 54,234 72,234 72,252 162,252 
		162,234 90,234 	"/>
</g>
</svg>
