<?xml version="1.0" encoding="utf-8"?>
<!-- Generator: Adobe Illustrator 22.1.0, SVG Export Plug-In . SVG Version: 6.00 Build 0)  -->
<svg version="1.1" id="Layer_1" xmlns="http://www.w3.org/2000/svg" xmlns:xlink="http://www.w3.org/1999/xlink" x="0px" y="0px"
	 viewBox="0 0 500 500" style="enable-background:new 0 0 500 500;" xml:space="preserve">
<style type="text/css">
	.st0{fill:#270300;}
	.st1{fill:#D06603;}
	.st2{fill:#FDC188;}
	.st3{fill:#FC993D;}
</style>
<polygon id="c4_1_" class="st0" points="376,115 358,115 358,79 340,79 340,61 304,61 304,43 196,43 196,61 160,61 160,79 142,79 
	142,115 124,115 124,259 142,259 142,295 160,295 160,313 196,313 196,331 304,331 304,313 340,313 340,295 358,295 358,259 
	376,259 "/>
<polygon id="c3_1_" class="st1" points="340,97 322,97 322,79 304,79 304,277 178,277 178,295 214,295 214,313 286,313 286,295 
	322,295 322,277 340,277 340,241 358,241 358,133 340,133 "/>
<polygon id="c1_1_" class="st2" points="214,61 214,79 178,79 178,97 160,97 160,133 142,133 142,241 160,241 160,277 214,277 
	214,259 268,259 268,97 286,97 286,61 "/>
<g id="c2_1_">
	<rect x="232" y="115" class="st3" width="36" height="144"/>
	<polygon class="st3" points="322,133 322,97 304,97 304,79 214,79 214,97 232,97 268,97 286,97 286,115 286,259 286,276 286,277 
		304,277 306,277 322,277 322,241 340,241 340,133 	"/>
	<polygon class="st3" points="214,276 214,259 214,115 214,97 196,97 178,97 178,133 160,133 160,241 178,241 178,277 196,277 
		196,295 286,295 286,277 214,277 	"/>
</g>
<g>
	<path class="st0" d="M358,367v-18h-72v18h-18v72h18v18h72v-18h18v-72H358z M340,439h-36v-72h36V439z"/>
	<polygon class="st0" points="214,349 142,349 142,367 124,367 124,385 160,385 160,367 196,367 196,403 142,403 142,421 124,421 
		124,457 232,457 232,439 160,439 160,421 214,421 214,403 232,403 232,367 214,367 	"/>
</g>
</svg>
