<?xml version="1.0" encoding="utf-8"?>
<!-- Generator: Adobe Illustrator 22.1.0, SVG Export Plug-In . SVG Version: 6.00 Build 0)  -->
<svg version="1.1" id="Layer_1" xmlns="http://www.w3.org/2000/svg" xmlns:xlink="http://www.w3.org/1999/xlink" x="0px" y="0px"
	 viewBox="0 0 500 500" style="enable-background:new 0 0 500 500;" xml:space="preserve">
<style type="text/css">
	.st0{fill:#270300;}
	.st1{fill:#64CA66;}
	.st2{fill:#4CBCFE;}
	.st3{fill:#EDD1AE;}
</style>
<polygon id="outline" class="st0" points="376,250 376,232 394,232 394,142 376,142 376,124 340,124 340,106 160,106 160,124 
	124,124 124,142 106,142 106,232 124,232 124,250 160,250 160,268 214,268 214,304 196,304 196,286 160,286 160,268 124,268 
	124,286 106,286 106,340 124,340 124,358 142,358 142,376 160,376 160,394 340,394 340,376 358,376 358,358 376,358 376,340 
	394,340 394,286 376,286 376,268 340,268 340,286 304,286 304,304 286,304 286,268 340,268 340,250 "/>
<polygon id="c1_x5F_green" class="st1" points="268,358 268,268 232,268 232,358 214,358 214,376 286,376 286,358 "/>
<g id="c1_x5F_green_1_">
	<polygon class="st1" points="322,340 322,322 340,322 340,304 304,304 304,322 286,322 286,358 304,358 304,340 	"/>
	<polygon class="st1" points="340,286 340,304 358,304 358,322 340,322 340,340 322,340 322,358 304,358 304,376 340,376 340,358 
		358,358 358,340 376,340 376,286 	"/>
</g>
<g id="c1_x5F_green_2_">
	<polygon class="st1" points="178,340 178,322 160,322 160,304 196,304 196,322 214,322 214,358 196,358 196,340 	"/>
	<polygon class="st1" points="160,286 160,304 142,304 142,322 160,322 160,340 178,340 178,358 196,358 196,376 160,376 160,358 
		142,358 142,340 124,340 124,286 	"/>
</g>
<path id="c2_x5F_blue" class="st2" d="M358,160v-18h-36v-18H178v18h-36v18h-18v54h18v18h36v18h144v-18h36v-18h18v-54H358z M340,214
	h-36v18H196v-18h-36v-54h36v-18h108v18h36V214z"/>
<g id="c3_x5F_beige">
	<rect x="178" y="178" class="st3" width="36" height="18"/>
	<rect x="286" y="178" class="st3" width="36" height="18"/>
	<rect x="214" y="196" class="st3" width="72" height="18"/>
	<rect x="214" y="160" class="st3" width="72" height="18"/>
</g>
</svg>
