<?xml version="1.0" encoding="utf-8"?>
<!-- Generator: Adobe Illustrator 22.1.0, SVG Export Plug-In . SVG Version: 6.00 Build 0)  -->
<svg version="1.1" id="Layer_1" xmlns="http://www.w3.org/2000/svg" xmlns:xlink="http://www.w3.org/1999/xlink" x="0px" y="0px"
	 viewBox="0 0 500 500" style="enable-background:new 0 0 500 500;" xml:space="preserve">
<style type="text/css">
	.st0{fill:#270300;}
	.st1{fill:#FFC2CE;}
	.st2{fill:#FF99AD;}
	.st3{fill:#FE953A;}
	.st4{fill:#C9531D;}
</style>
<polygon id="outline_1_" class="st0" points="394,196 376,196 376,160 358,160 358,142 340,142 340,124 304,124 304,106 196,106 
	196,124 160,124 160,142 142,142 142,160 124,160 124,196 106,196 106,322 124,322 124,340 142,340 142,376 160,376 160,394 
	340,394 340,376 358,376 358,340 376,340 376,322 394,322 "/>
<polygon id="c1_x5F_face" class="st1" points="322,322 322,304 286,304 286,340 268,340 268,304 232,304 232,340 214,340 214,304 
	178,304 178,322 160,322 160,358 178,358 178,376 322,376 322,358 340,358 340,322 "/>
<g id="c2_x5F_face">
	<rect x="160" y="322" class="st2" width="18" height="18"/>
	<rect x="322" y="322" class="st2" width="18" height="18"/>
	<rect x="286" y="304" class="st2" width="36" height="18"/>
	<rect x="232" y="304" class="st2" width="36" height="18"/>
	<rect x="178" y="304" class="st2" width="36" height="18"/>
</g>
<polygon id="c3_x5F_cap" class="st3" points="160,286 160,304 124,304 124,214 142,214 142,178 160,178 160,160 178,160 178,142 
	214,142 214,124 286,124 286,142 322,142 322,160 340,160 340,178 358,178 358,214 376,214 376,304 340,304 340,286 "/>
<g id="c4_x5F_cap">
	<polygon class="st4" points="286,196 214,196 214,214 196,214 196,268 214,268 214,286 286,286 286,268 304,268 304,214 286,214 	
		"/>
	<polygon class="st4" points="124,268 124,286 142,286 142,268 160,268 160,214 124,214 	"/>
	<polygon class="st4" points="214,160 232,160 232,124 214,124 214,142 178,142 178,178 214,178 	"/>
	<polygon class="st4" points="286,124 268,124 268,160 286,160 286,178 322,178 322,142 286,142 	"/>
	<polygon class="st4" points="340,214 340,268 358,268 358,286 376,286 376,268 376,267 376,214 	"/>
</g>
</svg>
