<?xml version="1.0" encoding="utf-8"?>
<!-- Generator: Adobe Illustrator 22.1.0, SVG Export Plug-In . SVG Version: 6.00 Build 0)  -->
<svg version="1.1" id="Layer_1" xmlns="http://www.w3.org/2000/svg" xmlns:xlink="http://www.w3.org/1999/xlink" x="0px" y="0px"
	 viewBox="0 0 500 500" style="enable-background:new 0 0 500 500;" xml:space="preserve">
<style type="text/css">
	.st0{fill:#270300;}
	.st1{fill:#FFFFFF;}
</style>
<polygon id="c1_x5F_bg" class="st0" points="358,250 358,214 340,214 340,178 322,178 322,160 304,160 304,142 286,142 286,124 
	268,124 268,106 232,106 232,124 214,124 214,142 196,142 196,160 178,160 178,178 160,178 160,214 142,214 142,250 124,250 
	124,322 142,322 142,340 214,340 214,376 178,376 178,394 322,394 322,376 286,376 286,340 358,340 358,322 376,322 376,250 "/>
<polygon id="c2_x5F_n" class="st1" points="286,196 286,250 268,250 268,232 250,232 250,214 232,214 232,196 196,196 196,304 
	232,304 232,250 250,250 250,268 268,268 268,286 286,286 286,304 304,304 304,196 "/>
</svg>
