<?xml version="1.0" encoding="utf-8"?>
<!-- Generator: Adobe Illustrator 22.1.0, SVG Export Plug-In . SVG Version: 6.00 Build 0)  -->
<svg version="1.1" id="Layer_1" xmlns="http://www.w3.org/2000/svg" xmlns:xlink="http://www.w3.org/1999/xlink" x="0px" y="0px"
	 viewBox="0 0 500 500" style="enable-background:new 0 0 500 500;" xml:space="preserve">
<style type="text/css">
	.st0{fill:#CA2625;}
	.st1{fill:#FFFAFC;}
</style>
<polygon id="bg" class="st0" points="358,250 358,232 376,232 376,214 394,214 394,178 304,178 304,160 286,160 286,124 268,124 
	268,106 232,106 232,124 214,124 214,160 196,160 196,178 106,178 106,214 124,214 124,232 142,232 142,250 160,250 160,286 
	142,286 142,322 124,322 124,358 106,358 106,394 124,394 160,394 160,376 196,376 196,358 232,358 232,340 268,340 268,358 
	304,358 304,376 340,376 340,394 376,394 394,394 394,358 376,358 376,322 358,322 358,286 340,286 340,250 "/>
<path id="front" class="st1" d="M340,250v-18h18v-18h18v-18h-90v-36h-18v-36h-36v36h-18v36h-90v18h18v18h18v18h18v36h-18v36h-18v36
	h-18v18h36v-18h36v-18h36v-18h36v18h36v18h36v18h36v-18h-18v-36h-18v-36h-18v-36H340z M286,214v54h-18v-54H286z M232,214v54h-18v-54
	H232z"/>
</svg>
